<svg xmlns="http://www.w3.org/2000/svg" xmlns:xlink="http://www.w3.org/1999/xlink" width="16" height="16" preserveAspectRatio="xMidYMid meet" viewBox="0 0 16 16" style="-ms-transform: rotate(360deg); -webkit-transform: rotate(360deg); transform: rotate(360deg);"><g fill="gray"><path d="M2 0a2 2 0 0 0-2 2v12a2 2 0 0 0 2 2h12a2 2 0 0 0 2-2V2a2 2 0 0 0-2-2H2zm1.5 2.5c5.523 0 10 4.477 10 10a1 1 0 1 1-2 0a8 8 0 0 0-8-8a1 1 0 0 1 0-2zm0 4a6 6 0 0 1 6 6a1 1 0 1 1-2 0a4 4 0 0 0-4-4a1 1 0 0 1 0-2zm.5 7a1.5 1.5 0 1 1 0-3a1.5 1.5 0 0 1 0 3z"/></g><rect x="0" y="0" width="16" height="16" fill="rgba(0, 0, 0, 0)" /></svg>